<svg width="15" height="18" viewBox="0 0 15 18" fill="none" xmlns="http://www.w3.org/2000/svg">
<path d="M7.07063 0.666748C9.62792 0.666748 11.6856 2.67907 11.6856 5.16342V6.4412C13.1209 6.88921 14.1667 8.18853 14.1667 9.74042V13.8545C14.1667 15.7757 12.5739 17.3334 10.6102 17.3334H3.55733C1.5928 17.3334 0 15.7757 0 13.8545V9.74042C0 8.18853 1.04662 6.88921 2.48107 6.4412V5.16342C2.48954 2.67907 4.54722 0.666748 7.07063 0.666748ZM7.0791 10.1536C6.67265 10.1536 6.3424 10.4766 6.3424 10.8741V12.7125C6.3424 13.1183 6.67265 13.4413 7.0791 13.4413C7.49402 13.4413 7.82427 13.1183 7.82427 12.7125V10.8741C7.82427 10.4766 7.49402 10.1536 7.0791 10.1536ZM7.08757 2.11595C5.3686 2.11595 3.97141 3.47406 3.96294 5.14686V6.2615H10.2037V5.16342C10.2037 3.48234 8.80654 2.11595 7.08757 2.11595Z" fill="#7e22ce"/>
</svg>
