<svg width="17" height="16" viewBox="0 0 17 16" fill="none" xmlns="http://www.w3.org/2000/svg">
<path d="M12.4492 0.5C13.5667 0.5 14.6417 0.941667 15.4325 1.73417C16.2242 2.525 16.6667 3.59167 16.6667 4.70833V11.2917C16.6667 13.6167 14.775 15.5 12.4492 15.5H4.21667C1.89083 15.5 0 13.6167 0 11.2917V4.70833C0 2.38333 1.8825 0.5 4.21667 0.5H12.4492ZM13.3917 4.83333C13.2167 4.82417 13.05 4.88333 12.9242 5L9.16667 8C8.68333 8.40083 7.99083 8.40083 7.5 8L3.75 5C3.49083 4.80833 3.1325 4.83333 2.91667 5.05833C2.69167 5.28333 2.66667 5.64167 2.8575 5.89167L2.96667 6L6.75833 8.95833C7.225 9.325 7.79083 9.525 8.38333 9.525C8.97417 9.525 9.55 9.325 10.0158 8.95833L13.775 5.95L13.8417 5.88333C14.0408 5.64167 14.0408 5.29167 13.8325 5.05C13.7167 4.92583 13.5575 4.85 13.3917 4.83333Z" fill="#7e22ce"/>
</svg>
